# xmcd
#
# Track frame offsets:
#	150
#	17076
#	42378
#	57378
#
# Disc length: 1013 seconds
# Revision: 0
# Processed by: cddbd v1.5.2PL0 Copyright (c) Steve Scherf et al.
# Submitted via: dBpowerAMP V12.0
#
DISCID=2f03f304
DTITLE=Oliver Frank - Bis ans Ende der Welt
DYEAR=1997
DGENRE=Discofox
TTITLE0=Bis ans Ende der Welt
TTITLE1=Bis ans Ende der Welt (Maxi Version)
TTITLE2=Kleine Worte
TTITLE3=Josey (Live-Mix)
EXTD=
EXTT0=
EXTT1=
EXTT2=
EXTT3=
PLAYORDER=
